{
	"asset":{
		"generator":"Khronos glTF Blender I/O v5.0.21",
		"version":"2.0"
	},
	"extensionsUsed":[
		"KHR_materials_transmission"
	],
	"scene":0,
	"scenes":[
		{
			"name":"Scene",
			"nodes":[
				57,
				58,
				59
			]
		}
	],
	"nodes":[
		{
			"name":"IKBone.L.F",
			"rotation":[
				-7.924035116957384e-08,
				-7.924032985329177e-08,
				-0.7071068286895752,
				0.7071067094802856
			],
			"translation":[
				4.856978893280029,
				1.6660091876983643,
				-2.509880542755127
			]
		},
		{
			"name":"IKBone.L.B",
			"rotation":[
				-2.6692537957728746e-08,
				-2.6692537957728746e-08,
				-0.7071067690849304,
				0.7071067690849304
			],
			"translation":[
				4.858062744140625,
				-1.8401623964309692,
				-2.829984664916992
			]
		},
		{
			"name":"IKBone.R.F",
			"rotation":[
				-0.7071067690849304,
				-0.7071067690849304,
				-2.3742677512927912e-07,
				2.3742677512927912e-07
			],
			"translation":[
				4.868053436279297,
				1.6660082340240479,
				2.5104522705078125
			]
		},
		{
			"name":"IKBone.R.B",
			"rotation":[
				-0.7071067690849304,
				-0.7071067690849304,
				-3.2172047781386937e-07,
				3.2172047781386937e-07
			],
			"translation":[
				4.869136810302734,
				-1.8401628732681274,
				2.8305563926696777
			]
		},
		{
			"mesh":0,
			"name":"hatch_connector",
			"rotation":[
				4.591800717435035e-08,
				4.591800362163667e-08,
				0.7071067690849304,
				0.7071067690849304
			],
			"scale":[
				0.04739344120025635,
				0.04739343002438545,
				0.04739343002438545
			],
			"translation":[
				8.27915096282959,
				1.0144213438034058,
				-1.0752607977337902e-06
			]
		},
		{
			"mesh":1,
			"name":"hatch_door",
			"rotation":[
				4.591800717435035e-08,
				4.591800362163667e-08,
				0.7071067690849304,
				0.7071067690849304
			],
			"scale":[
				-0.8082445859909058,
				-0.8082444071769714,
				-0.8082444071769714
			],
			"translation":[
				8.279150009155273,
				1.0144213438034058,
				-1.0752606840469525e-06
			]
		},
		{
			"children":[
				4,
				5
			],
			"name":"Bone.001",
			"rotation":[
				-6.0143892057146816e-15,
				-3.301291684465468e-08,
				-6.493787907402293e-08,
				1
			],
			"scale":[
				1,
				0.9999999403953552,
				1
			],
			"translation":[
				-1.7350749969482422,
				1.851674199104309,
				1.1078435591116431e-07
			]
		},
		{
			"mesh":2,
			"name":"front_left_lower_leg",
			"rotation":[
				-1.0342949963160208e-07,
				-0.7071067690849304,
				-0.7071067690849304,
				4.305081446887016e-08
			],
			"scale":[
				1.5839999914169312,
				1.5839999914169312,
				1.5839999914169312
			],
			"translation":[
				-0.0005850842571817338,
				1.5007880926132202,
				-0.0005072098574601114
			]
		},
		{
			"mesh":3,
			"name":"front_left_lower_swivel",
			"rotation":[
				-1.0342949963160208e-07,
				-0.7071067690849304,
				-0.7071067690849304,
				4.30508073634428e-08
			],
			"scale":[
				0.6428791284561157,
				0.6428791284561157,
				0.6428791284561157
			],
			"translation":[
				-0.0005855720373801887,
				0.8450230956077576,
				-0.0010236245580017567
			]
		},
		{
			"mesh":4,
			"name":"front_left_lower_swivel_deco",
			"rotation":[
				-1.0342949252617473e-07,
				-0.7071067690849304,
				-0.7071067690849304,
				4.305081446887016e-08
			],
			"scale":[
				0.38572749495506287,
				0.6428791284561157,
				0.38572749495506287
			],
			"translation":[
				1.6660106182098389,
				3.703629493713379,
				2.5099995136260986
			]
		},
		{
			"children":[
				7,
				8,
				9
			],
			"name":"Bone.002.L",
			"rotation":[
				2.74347868867153e-08,
				5.948159298441169e-08,
				3.204680609769639e-08,
				1
			],
			"translation":[
				-2.5479295118202572e-08,
				2.008251905441284,
				1.8586837313705473e-07
			]
		},
		{
			"mesh":5,
			"name":"front_left_upper_leg",
			"rotation":[
				-1.9411982066230848e-07,
				-0.7071067690849304,
				-0.7071067690849304,
				1.9378101967504335e-07
			],
			"scale":[
				1.5839999914169312,
				1.5839999914169312,
				1.5839999914169312
			],
			"translation":[
				-0.0005856837378814816,
				1.649021863937378,
				-0.0002933268260676414
			]
		},
		{
			"mesh":6,
			"name":"front_left_upper_swivel",
			"rotation":[
				-1.9411982066230848e-07,
				-0.7071067690849304,
				-0.7071067690849304,
				1.9378100546418864e-07
			],
			"scale":[
				0.6428791284561157,
				0.6428791284561157,
				0.6428791284561157
			],
			"translation":[
				-0.0005854809423908591,
				0.7851437926292419,
				0.08577835559844971
			]
		},
		{
			"mesh":7,
			"name":"front_left_upper_swivel_deco",
			"rotation":[
				-1.9411982066230848e-07,
				-0.7071067690849304,
				-0.7071067690849304,
				1.937809770424792e-07
			],
			"scale":[
				0.38572749495506287,
				0.6428791284561157,
				0.38572749495506287
			],
			"translation":[
				1.6660115718841553,
				5.711732387542725,
				2.5102195739746094
			]
		},
		{
			"children":[
				10,
				11,
				12,
				13
			],
			"name":"Bone.001.L",
			"rotation":[
				-2.1592039445295086e-07,
				-1.3197306714118895e-07,
				-0.7071067690849304,
				0.7071067690849304
			],
			"translation":[
				0.8321942090988159,
				4.532103538513184,
				-2.509880542755127
			]
		},
		{
			"name":"Bone.004.L.001",
			"rotation":[
				1.2987079855975026e-07,
				1.2987081277060497e-07,
				0.7071067690849304,
				0.7071067690849304
			],
			"translation":[
				1.339360977681281e-07,
				2.23181414604187,
				3.930871272928016e-08
			]
		},
		{
			"mesh":8,
			"name":"back_left_lower_leg",
			"rotation":[
				-1.4993686647812865e-07,
				-0.7071067690849304,
				-0.7071067690849304,
				1.2295635087866685e-07
			],
			"scale":[
				1.5840002298355103,
				1.5839999914169312,
				1.5840002298355103
			],
			"translation":[
				-0.0008430483285337687,
				1.572304368019104,
				-0.0011205277405679226
			]
		},
		{
			"mesh":9,
			"name":"back_left_lower_swivel",
			"rotation":[
				-1.4993688068898336e-07,
				-0.7071067690849304,
				-0.7071067690849304,
				1.2295635087866685e-07
			],
			"scale":[
				0.6428791880607605,
				0.6428791284561157,
				0.6428791880607605
			],
			"translation":[
				-0.0008428262663073838,
				0.8420054316520691,
				-0.0016414723359048367
			]
		},
		{
			"mesh":10,
			"name":"back_left_lower_swivel_deco",
			"rotation":[
				-1.4993688068898336e-07,
				-0.7071067690849304,
				-0.7071067690849304,
				1.2295635087866685e-07
			],
			"scale":[
				0.38572755455970764,
				0.6428791284561157,
				0.38572755455970764
			],
			"translation":[
				-1.8401614427566528,
				3.9178271293640137,
				2.830000162124634
			]
		},
		{
			"children":[
				15,
				16,
				17,
				18
			],
			"name":"Bone.004.L",
			"rotation":[
				2.225558759505475e-08,
				3.834512429801151e-10,
				5.218126819528379e-09,
				1
			],
			"translation":[
				-4.6413717313953384e-09,
				2.200223684310913,
				1.3945009413873777e-07
			]
		},
		{
			"mesh":11,
			"name":"back_left_upper_leg",
			"rotation":[
				-1.5866328695324228e-08,
				-0.7071067690849304,
				-0.7071067690849304,
				1.0418170859338716e-07
			],
			"scale":[
				1.5839999914169312,
				1.5839999914169312,
				1.5839999914169312
			],
			"translation":[
				-0.0008437734795734286,
				1.760013461112976,
				-0.0009547462686896324
			]
		},
		{
			"mesh":12,
			"name":"back_left_upper_swivel",
			"rotation":[
				-1.586632336625371e-08,
				-0.7071067690849304,
				-0.7071067690849304,
				1.0418171569881451e-07
			],
			"scale":[
				0.6428791284561157,
				0.6428791284561157,
				0.6428791284561157
			],
			"translation":[
				-0.0008428754517808557,
				0.7913485765457153,
				0.20232518017292023
			]
		},
		{
			"mesh":13,
			"name":"back_left_upper_swivel_deco",
			"rotation":[
				-1.586632336625371e-08,
				-0.7071067690849304,
				-0.7071067690849304,
				1.0418170859338716e-07
			],
			"scale":[
				0.38572749495506287,
				0.6428791284561157,
				0.38572749495506287
			],
			"translation":[
				-1.8401610851287842,
				6.118031024932861,
				2.8300275802612305
			]
		},
		{
			"children":[
				19,
				20,
				21,
				22
			],
			"name":"Bone.003.L",
			"rotation":[
				-1.684533685875067e-07,
				-9.183052185335328e-08,
				-0.7071067690849304,
				0.7071067690849304
			],
			"translation":[
				0.4260247051715851,
				1.02593195438385,
				-2.829984664916992
			]
		},
		{
			"mesh":14,
			"name":"front_right_lower_leg",
			"rotation":[
				-0.7071067690849304,
				-2.1835663233105151e-07,
				-3.8194102103261685e-07,
				0.7071067690849304
			],
			"scale":[
				1.5839999914169312,
				1.5839999914169312,
				1.5840003490447998
			],
			"translation":[
				0.0005858966032974422,
				1.4897140264511108,
				6.474046676885337e-05
			]
		},
		{
			"mesh":15,
			"name":"front_right_lower_swivel",
			"rotation":[
				-0.7071067690849304,
				-2.1835666075276094e-07,
				-3.8194102103261685e-07,
				0.7071067690849304
			],
			"scale":[
				0.6428791284561157,
				0.6428791284561157,
				0.64287930727005
			],
			"translation":[
				0.0005862683174200356,
				0.8339479565620422,
				-0.00045215102727524936
			]
		},
		{
			"mesh":16,
			"name":"front_right_lower_swivel_deco",
			"rotation":[
				-0.7071067690849304,
				-2.1035329211827047e-07,
				-1.5696836896950117e-07,
				0.7071067690849304
			],
			"scale":[
				0.38572749495506287,
				0.6428791284561157,
				0.38572749495506287
			],
			"translation":[
				-1.6660103797912598,
				3.692554473876953,
				2.5103795528411865
			]
		},
		{
			"children":[
				24,
				25,
				26
			],
			"name":"Bone.002.R",
			"rotation":[
				-8.679445073767056e-08,
				-2.7568000859901076e-07,
				-6.209240410726125e-08,
				1
			],
			"translation":[
				5.825978632856277e-08,
				2.008251667022705,
				-1.2713610431092093e-07
			]
		},
		{
			"mesh":17,
			"name":"front_right_upper_leg",
			"rotation":[
				-0.7071067690849304,
				-3.7364429772424046e-07,
				-5.839999630552484e-07,
				0.7071067690849304
			],
			"scale":[
				1.5839999914169312,
				1.5839999914169312,
				1.5840003490447998
			],
			"translation":[
				0.0005869388696737587,
				1.637947678565979,
				0.0002483700809534639
			]
		},
		{
			"mesh":18,
			"name":"front_right_upper_swivel",
			"rotation":[
				-0.7071067690849304,
				-3.736443261459499e-07,
				-5.839999062118295e-07,
				0.7071067690849304
			],
			"scale":[
				0.6428791284561157,
				0.6428791284561157,
				0.64287930727005
			],
			"translation":[
				0.0005864576669409871,
				0.7740699648857117,
				0.08632001280784607
			]
		},
		{
			"mesh":19,
			"name":"front_right_upper_swivel_deco",
			"rotation":[
				-0.7070984244346619,
				-3.202034406513121e-07,
				-4.798278609996487e-07,
				0.707115113735199
			],
			"scale":[
				0.38572749495506287,
				0.6428791284561157,
				0.38572749495506287
			],
			"translation":[
				-1.666011095046997,
				5.700589179992676,
				2.5102953910827637
			]
		},
		{
			"children":[
				27,
				28,
				29,
				30
			],
			"name":"Bone.001.R",
			"rotation":[
				-0.70710688829422,
				-0.7071066498756409,
				-3.912526267413341e-07,
				5.591471676780202e-07
			],
			"translation":[
				0.8432695269584656,
				4.532103538513184,
				2.5104525089263916
			]
		},
		{
			"mesh":20,
			"name":"back_right_lower_leg",
			"rotation":[
				-0.7071067690849304,
				-2.65798092868863e-07,
				-3.3717478231665154e-07,
				0.7071067690849304
			],
			"scale":[
				1.5839999914169312,
				1.5839999914169312,
				1.5839999914169312
			],
			"translation":[
				0.0008433611947111785,
				1.5612303018569946,
				-0.0005487485323101282
			]
		},
		{
			"mesh":21,
			"name":"back_right_lower_swivel",
			"rotation":[
				-0.7071067690849304,
				-2.6579812129057245e-07,
				-3.3717478231665154e-07,
				0.7071067690849304
			],
			"scale":[
				0.6428791284561157,
				0.6428791284561157,
				0.6428791284561157
			],
			"translation":[
				0.0008430223097093403,
				0.830932080745697,
				-0.001070330385118723
			]
		},
		{
			"mesh":22,
			"name":"back_right_lower_swivel_deco",
			"rotation":[
				-0.7071067690849304,
				-3.2923580306487565e-07,
				-2.7585076622926863e-07,
				0.7071067690849304
			],
			"scale":[
				0.38572749495506287,
				0.6428791284561157,
				0.38572749495506287
			],
			"translation":[
				1.8401600122451782,
				3.906752586364746,
				2.8309874534606934
			]
		},
		{
			"children":[
				32,
				33,
				34
			],
			"name":"Bone.004.R",
			"rotation":[
				-2.3022451500764873e-08,
				8.299416265344917e-08,
				-3.3458753989634715e-08,
				1
			],
			"translation":[
				1.3734126014242065e-07,
				2.2002241611480713,
				-1.1615327366598649e-08
			]
		},
		{
			"mesh":23,
			"name":"back_right_upper_leg",
			"rotation":[
				-0.7071067690849304,
				-2.314632752131729e-07,
				-3.0214795287974994e-07,
				0.7071067690849304
			],
			"scale":[
				1.5839999914169312,
				1.5840001106262207,
				1.5840001106262207
			],
			"translation":[
				0.0008441659156233072,
				1.748939871788025,
				-0.0002192871761508286
			]
		},
		{
			"mesh":24,
			"name":"back_right_upper_swivel",
			"rotation":[
				-0.7071067690849304,
				-2.3146333205659175e-07,
				-3.0214798130145937e-07,
				0.7071067690849304
			],
			"scale":[
				0.6428791284561157,
				0.6428791284561157,
				0.6428791284561157
			],
			"translation":[
				0.0008431199821643531,
				0.780275285243988,
				0.2030605971813202
			]
		},
		{
			"mesh":25,
			"name":"back_right_upper_swivel_deco",
			"rotation":[
				-0.7070356011390686,
				-1.358082357683088e-07,
				-3.1851669746174593e-07,
				0.707177996635437
			],
			"scale":[
				0.38572749495506287,
				0.6428791284561157,
				0.38572749495506287
			],
			"translation":[
				1.8401607275009155,
				6.106388092041016,
				2.831751585006714
			]
		},
		{
			"children":[
				35,
				36,
				37,
				38
			],
			"name":"Bone.003.R",
			"rotation":[
				-0.70710688829422,
				-0.7071066498756409,
				-1.5302052247534448e-07,
				3.062661164676683e-07
			],
			"translation":[
				0.4370986521244049,
				1.0259324312210083,
				2.830556869506836
			]
		},
		{
			"mesh":26,
			"name":"box_above",
			"rotation":[
				6.171935496013248e-08,
				-2.9212398544586904e-07,
				-0.7071067690849304,
				0.7071067690849304
			],
			"translation":[
				-5.1591715812683105,
				4.655712127685547,
				3.294126145192422e-07
			]
		},
		{
			"mesh":27,
			"name":"box_back",
			"rotation":[
				2.2574344171744087e-08,
				2.2574347724457766e-08,
				0.7071067690849304,
				0.7071067690849304
			],
			"scale":[
				1.5839999914169312,
				1.5839999914169312,
				1.5839999914169312
			],
			"translation":[
				6.544075012207031,
				2.8660943508148193,
				-4.178385495379189e-07
			]
		},
		{
			"mesh":28,
			"name":"box_below",
			"rotation":[
				2.2574344171744087e-08,
				2.2574347724457766e-08,
				0.7071067690849304,
				0.7071067690849304
			],
			"translation":[
				6.5440754890441895,
				4.655712127685547,
				-4.1783852111620945e-07
			]
		},
		{
			"mesh":29,
			"name":"box_side",
			"rotation":[
				2.2574344171744087e-08,
				2.2574347724457766e-08,
				0.7071067690849304,
				0.7071067690849304
			],
			"scale":[
				0.8977113366127014,
				0.8977113366127014,
				0.8977113366127014
			],
			"translation":[
				6.5440754890441895,
				2.8660943508148193,
				-4.178385779596283e-07
			]
		},
		{
			"mesh":30,
			"name":"cabin",
			"rotation":[
				2.2574344171744087e-08,
				2.2574347724457766e-08,
				0.7071067690849304,
				0.7071067690849304
			],
			"translation":[
				6.544075012207031,
				2.8660943508148193,
				-4.1783852111620945e-07
			]
		},
		{
			"mesh":31,
			"name":"door",
			"rotation":[
				2.2574344171744087e-08,
				2.2574347724457766e-08,
				0.7071067690849304,
				0.7071067690849304
			],
			"translation":[
				6.544075012207031,
				2.8659462928771973,
				-4.1783852111620945e-07
			]
		},
		{
			"mesh":32,
			"name":"door_hinge",
			"rotation":[
				2.2574344171744087e-08,
				2.2574347724457766e-08,
				0.7071067690849304,
				0.7071067690849304
			],
			"scale":[
				0.10752362012863159,
				0.10752362012863159,
				0.10752362012863159
			],
			"translation":[
				6.544075012207031,
				2.8660943508148193,
				-4.1783852111620945e-07
			]
		},
		{
			"mesh":33,
			"name":"hatch_hinge",
			"rotation":[
				0.5000000596046448,
				0.5,
				0.5,
				0.5
			],
			"scale":[
				0.11009004712104797,
				0.3669668436050415,
				0.11009004712104797
			],
			"translation":[
				6.544075012207031,
				2.8660943508148193,
				-4.1783843585108116e-07
			]
		},
		{
			"mesh":34,
			"name":"inside_ladder_hold",
			"rotation":[
				2.2574347724457766e-08,
				2.2574349500814606e-08,
				0.7071067690849304,
				0.7071067690849304
			],
			"scale":[
				0.12477713823318481,
				0.12477713823318481,
				0.12477713823318481
			],
			"translation":[
				6.544074535369873,
				2.8660943508148193,
				-4.178384926945e-07
			]
		},
		{
			"mesh":35,
			"name":"inside_ladder_steps",
			"rotation":[
				2.2574344171744087e-08,
				2.2574347724457766e-08,
				0.7071067690849304,
				0.7071067690849304
			],
			"translation":[
				5.273212432861328,
				5.10039758682251,
				-1.6594238161360408e-07
			]
		},
		{
			"mesh":36,
			"name":"ladder_hold",
			"rotation":[
				2.2574344171744087e-08,
				2.2574347724457766e-08,
				0.7071067690849304,
				0.7071067690849304
			],
			"scale":[
				0.0928172692656517,
				0.0928172692656517,
				0.0928172692656517
			],
			"translation":[
				6.5440754890441895,
				2.8660943508148193,
				-4.774432227350189e-07
			]
		},
		{
			"mesh":37,
			"name":"ladder_steps_out",
			"rotation":[
				2.2574344171744087e-08,
				2.2574347724457766e-08,
				0.7071067690849304,
				0.7071067690849304
			],
			"translation":[
				6.545935153961182,
				2.86081862449646,
				-2.472056053193228e-07
			]
		},
		{
			"mesh":38,
			"name":"stripes_side",
			"rotation":[
				2.2574344171744087e-08,
				2.2574347724457766e-08,
				0.7071067690849304,
				0.7071067690849304
			],
			"translation":[
				6.544075012207031,
				2.8660943508148193,
				-4.1783852111620945e-07
			]
		},
		{
			"mesh":39,
			"name":"top_exhaust",
			"rotation":[
				2.2574347724457766e-08,
				2.2574349500814606e-08,
				0.7071067690849304,
				0.7071067690849304
			],
			"scale":[
				0.4773809313774109,
				0.4773809313774109,
				0.4773809313774109
			],
			"translation":[
				6.544075012207031,
				2.8660943508148193,
				-4.1411323081774754e-07
			]
		},
		{
			"mesh":40,
			"name":"top_exhaust_shields",
			"rotation":[
				2.2574344171744087e-08,
				2.2574347724457766e-08,
				0.7071067690849304,
				0.7071067690849304
			],
			"translation":[
				6.544075012207031,
				2.8660943508148193,
				-4.1783852111620945e-07
			]
		},
		{
			"mesh":41,
			"name":"window",
			"rotation":[
				-1.0587911840678754e-22,
				3.192494801851353e-08,
				3.192494801851353e-08,
				1
			],
			"translation":[
				6.544075012207031,
				2.8660943508148193,
				-4.1783852111620945e-07
			]
		},
		{
			"children":[
				6,
				14,
				23,
				31,
				39,
				40,
				41,
				42,
				43,
				44,
				45,
				46,
				47,
				48,
				49,
				50,
				51,
				52,
				53,
				54,
				55
			],
			"name":"Bone",
			"rotation":[
				0,
				-3.192494801851353e-08,
				-3.192494801851353e-08,
				1
			],
			"translation":[
				-2.1638410885316262e-07,
				-2.8660943508148193,
				0
			]
		},
		{
			"children":[
				0,
				1,
				2,
				3,
				56
			],
			"name":"Armature",
			"rotation":[
				0,
				0,
				-0.7071068286895752,
				0.7071068286895752
			],
			"translation":[
				0,
				5.70111608505249,
				0
			]
		},
		{
			"mesh":42,
			"name":"stripes_top"
		},
		{
			"mesh":43,
			"name":"stripes_top_front"
		}
	],
	"materials":[
		{
			"doubleSided":true,
			"name":"pbr rust",
			"normalTexture":{
				"index":0
			},
			"pbrMetallicRoughness":{
				"baseColorTexture":{
					"index":1
				},
				"metallicRoughnessTexture":{
					"index":2
				}
			}
		},
		{
			"doubleSided":true,
			"name":"pbr plate",
			"normalTexture":{
				"index":3
			},
			"pbrMetallicRoughness":{
				"baseColorTexture":{
					"index":4
				},
				"metallicRoughnessTexture":{
					"index":5
				}
			}
		},
		{
			"doubleSided":true,
			"name":"shiny_white",
			"pbrMetallicRoughness":{
				"baseColorFactor":[
					0.2679922878742218,
					0.29896876215934753,
					0.2679922878742218,
					1
				],
				"metallicFactor":0.699999988079071,
				"roughnessFactor":0.4000000059604645
			}
		},
		{
			"doubleSided":true,
			"name":"shiny_green",
			"pbrMetallicRoughness":{
				"baseColorFactor":[
					0.22622379660606384,
					0.29906389117240906,
					0.20856042206287384,
					1
				],
				"metallicFactor":0.8999999761581421,
				"roughnessFactor":0.4000000059604645
			}
		},
		{
			"doubleSided":true,
			"name":"pbr dark metal",
			"normalTexture":{
				"index":6
			},
			"pbrMetallicRoughness":{
				"baseColorTexture":{
					"index":7
				},
				"metallicRoughnessTexture":{
					"index":8
				}
			}
		},
		{
			"doubleSided":true,
			"name":"pbr camo",
			"normalTexture":{
				"index":9
			},
			"pbrMetallicRoughness":{
				"baseColorTexture":{
					"index":10
				},
				"metallicRoughnessTexture":{
					"index":11
				}
			}
		},
		{
			"doubleSided":true,
			"name":"light grey",
			"pbrMetallicRoughness":{
				"baseColorFactor":[
					0.13428060710430145,
					0.13428060710430145,
					0.13428060710430145,
					1
				],
				"metallicFactor":0.5,
				"roughnessFactor":0.699999988079071
			}
		},
		{
			"doubleSided":true,
			"name":"dark grey",
			"pbrMetallicRoughness":{
				"baseColorFactor":[
					0.07398521900177002,
					0.07398521900177002,
					0.07398521900177002,
					1
				],
				"metallicFactor":0.699999988079071,
				"roughnessFactor":0.699999988079071
			}
		},
		{
			"doubleSided":true,
			"extensions":{
				"KHR_materials_transmission":{
					"transmissionFactor":1
				}
			},
			"name":"glass",
			"pbrMetallicRoughness":{
				"baseColorFactor":[
					0.800000011920929,
					0.800000011920929,
					0.800000011920929,
					1
				],
				"metallicFactor":0,
				"roughnessFactor":0.029999999329447746
			}
		}
	],
	"meshes":[
		{
			"name":"Cube.003",
			"primitives":[
				{
					"attributes":{
						"POSITION":0,
						"NORMAL":1,
						"TEXCOORD_0":2
					},
					"indices":3,
					"material":0
				}
			]
		},
		{
			"name":"Cylinder.005",
			"primitives":[
				{
					"attributes":{
						"POSITION":4,
						"NORMAL":5,
						"TEXCOORD_0":6
					},
					"indices":7,
					"material":1
				}
			]
		},
		{
			"name":"Cylinder.013",
			"primitives":[
				{
					"attributes":{
						"POSITION":8,
						"NORMAL":9,
						"TEXCOORD_0":10
					},
					"indices":11,
					"material":0
				}
			]
		},
		{
			"name":"Cylinder.014",
			"primitives":[
				{
					"attributes":{
						"POSITION":12,
						"NORMAL":13,
						"TEXCOORD_0":14
					},
					"indices":15,
					"material":2
				}
			]
		},
		{
			"name":"Cylinder.021",
			"primitives":[
				{
					"attributes":{
						"POSITION":16,
						"NORMAL":17,
						"TEXCOORD_0":18
					},
					"indices":19,
					"material":3
				}
			]
		},
		{
			"name":"Cylinder.015",
			"primitives":[
				{
					"attributes":{
						"POSITION":20,
						"NORMAL":21,
						"TEXCOORD_0":22
					},
					"indices":23,
					"material":0
				}
			]
		},
		{
			"name":"Cylinder.016",
			"primitives":[
				{
					"attributes":{
						"POSITION":24,
						"NORMAL":25,
						"TEXCOORD_0":26
					},
					"indices":27,
					"material":2
				}
			]
		},
		{
			"name":"Cylinder.012",
			"primitives":[
				{
					"attributes":{
						"POSITION":28,
						"NORMAL":29,
						"TEXCOORD_0":30
					},
					"indices":31,
					"material":3
				}
			]
		},
		{
			"name":"Cylinder.017",
			"primitives":[
				{
					"attributes":{
						"POSITION":32,
						"NORMAL":33,
						"TEXCOORD_0":34
					},
					"indices":35,
					"material":0
				}
			]
		},
		{
			"name":"Cylinder.018",
			"primitives":[
				{
					"attributes":{
						"POSITION":36,
						"NORMAL":37,
						"TEXCOORD_0":38
					},
					"indices":39,
					"material":2
				}
			]
		},
		{
			"name":"Cylinder.023",
			"primitives":[
				{
					"attributes":{
						"POSITION":40,
						"NORMAL":41,
						"TEXCOORD_0":42
					},
					"indices":43,
					"material":3
				}
			]
		},
		{
			"name":"Cylinder.019",
			"primitives":[
				{
					"attributes":{
						"POSITION":44,
						"NORMAL":45,
						"TEXCOORD_0":46
					},
					"indices":23,
					"material":0
				}
			]
		},
		{
			"name":"Cylinder.020",
			"primitives":[
				{
					"attributes":{
						"POSITION":47,
						"NORMAL":48,
						"TEXCOORD_0":49
					},
					"indices":50,
					"material":2
				}
			]
		},
		{
			"name":"Cylinder.022",
			"primitives":[
				{
					"attributes":{
						"POSITION":51,
						"NORMAL":52,
						"TEXCOORD_0":53
					},
					"indices":50,
					"material":3
				}
			]
		},
		{
			"name":"Cylinder.003",
			"primitives":[
				{
					"attributes":{
						"POSITION":54,
						"NORMAL":55,
						"TEXCOORD_0":56
					},
					"indices":57,
					"material":0
				}
			]
		},
		{
			"name":"Cylinder.002",
			"primitives":[
				{
					"attributes":{
						"POSITION":58,
						"NORMAL":59,
						"TEXCOORD_0":60
					},
					"indices":61,
					"material":2
				}
			]
		},
		{
			"name":"Cylinder.024",
			"primitives":[
				{
					"attributes":{
						"POSITION":62,
						"NORMAL":63,
						"TEXCOORD_0":64
					},
					"indices":65,
					"material":3
				}
			]
		},
		{
			"name":"Cylinder.001",
			"primitives":[
				{
					"attributes":{
						"POSITION":66,
						"NORMAL":67,
						"TEXCOORD_0":68
					},
					"indices":69,
					"material":0
				}
			]
		},
		{
			"name":"Cylinder",
			"primitives":[
				{
					"attributes":{
						"POSITION":70,
						"NORMAL":71,
						"TEXCOORD_0":72
					},
					"indices":73,
					"material":2
				}
			]
		},
		{
			"name":"Cylinder.025",
			"primitives":[
				{
					"attributes":{
						"POSITION":74,
						"NORMAL":75,
						"TEXCOORD_0":76
					},
					"indices":77,
					"material":3
				}
			]
		},
		{
			"name":"Cylinder.008",
			"primitives":[
				{
					"attributes":{
						"POSITION":78,
						"NORMAL":79,
						"TEXCOORD_0":80
					},
					"indices":81,
					"material":0
				}
			]
		},
		{
			"name":"Cylinder.009",
			"primitives":[
				{
					"attributes":{
						"POSITION":82,
						"NORMAL":83,
						"TEXCOORD_0":84
					},
					"indices":85,
					"material":2
				}
			]
		},
		{
			"name":"Cylinder.026",
			"primitives":[
				{
					"attributes":{
						"POSITION":86,
						"NORMAL":87,
						"TEXCOORD_0":88
					},
					"indices":89,
					"material":3
				}
			]
		},
		{
			"name":"Cylinder.010",
			"primitives":[
				{
					"attributes":{
						"POSITION":90,
						"NORMAL":91,
						"TEXCOORD_0":92
					},
					"indices":69,
					"material":0
				}
			]
		},
		{
			"name":"Cylinder.011",
			"primitives":[
				{
					"attributes":{
						"POSITION":93,
						"NORMAL":94,
						"TEXCOORD_0":95
					},
					"indices":96,
					"material":2
				}
			]
		},
		{
			"name":"Cylinder.027",
			"primitives":[
				{
					"attributes":{
						"POSITION":97,
						"NORMAL":98,
						"TEXCOORD_0":99
					},
					"indices":100,
					"material":3
				}
			]
		},
		{
			"name":"Cube.013",
			"primitives":[
				{
					"attributes":{
						"POSITION":101,
						"NORMAL":102,
						"TEXCOORD_0":103
					},
					"indices":104,
					"material":4
				}
			]
		},
		{
			"name":"Cube",
			"primitives":[
				{
					"attributes":{
						"POSITION":105,
						"NORMAL":106,
						"TEXCOORD_0":107
					},
					"indices":108,
					"material":4
				}
			]
		},
		{
			"name":"Cube.012",
			"primitives":[
				{
					"attributes":{
						"POSITION":109,
						"NORMAL":110,
						"TEXCOORD_0":111
					},
					"indices":112,
					"material":4
				}
			]
		},
		{
			"name":"Cube.001",
			"primitives":[
				{
					"attributes":{
						"POSITION":113,
						"NORMAL":114,
						"TEXCOORD_0":115
					},
					"indices":116,
					"material":4
				}
			]
		},
		{
			"name":"Plane",
			"primitives":[
				{
					"attributes":{
						"POSITION":117,
						"NORMAL":118,
						"TEXCOORD_0":119
					},
					"indices":120,
					"material":5
				}
			]
		},
		{
			"name":"Cube.007",
			"primitives":[
				{
					"attributes":{
						"POSITION":121,
						"NORMAL":122,
						"TEXCOORD_0":123
					},
					"indices":124,
					"material":5
				}
			]
		},
		{
			"name":"Cylinder.006",
			"primitives":[
				{
					"attributes":{
						"POSITION":125,
						"NORMAL":126,
						"TEXCOORD_0":127
					},
					"indices":128,
					"material":0
				}
			]
		},
		{
			"name":"Cylinder.004",
			"primitives":[
				{
					"attributes":{
						"POSITION":129,
						"NORMAL":130,
						"TEXCOORD_0":131
					},
					"indices":132,
					"material":0
				}
			]
		},
		{
			"name":"Cube.009",
			"primitives":[
				{
					"attributes":{
						"POSITION":133,
						"NORMAL":134,
						"TEXCOORD_0":135
					},
					"indices":136,
					"material":6
				}
			]
		},
		{
			"name":"Cube.008",
			"primitives":[
				{
					"attributes":{
						"POSITION":137,
						"NORMAL":138,
						"TEXCOORD_0":139
					},
					"indices":140,
					"material":7
				}
			]
		},
		{
			"name":"Cube.006",
			"primitives":[
				{
					"attributes":{
						"POSITION":141,
						"NORMAL":142,
						"TEXCOORD_0":143
					},
					"indices":144,
					"material":6
				}
			]
		},
		{
			"name":"Cube.015",
			"primitives":[
				{
					"attributes":{
						"POSITION":145,
						"NORMAL":146,
						"TEXCOORD_0":147
					},
					"indices":148,
					"material":7
				}
			]
		},
		{
			"name":"Cube.010",
			"primitives":[
				{
					"attributes":{
						"POSITION":149,
						"NORMAL":150,
						"TEXCOORD_0":151
					},
					"indices":152,
					"material":1
				}
			]
		},
		{
			"name":"Cube.005",
			"primitives":[
				{
					"attributes":{
						"POSITION":153,
						"NORMAL":154,
						"TEXCOORD_0":155
					},
					"indices":156,
					"material":5
				}
			]
		},
		{
			"name":"Cube.002",
			"primitives":[
				{
					"attributes":{
						"POSITION":157,
						"NORMAL":158,
						"TEXCOORD_0":159
					},
					"indices":160,
					"material":4
				}
			]
		},
		{
			"name":"Plane.001",
			"primitives":[
				{
					"attributes":{
						"POSITION":161,
						"NORMAL":162,
						"TEXCOORD_0":163
					},
					"indices":164,
					"material":8
				}
			]
		},
		{
			"name":"Cube.016",
			"primitives":[
				{
					"attributes":{
						"POSITION":165,
						"NORMAL":166,
						"TEXCOORD_0":167
					},
					"indices":168,
					"material":1
				}
			]
		},
		{
			"name":"Cube.017",
			"primitives":[
				{
					"attributes":{
						"POSITION":169,
						"NORMAL":170,
						"TEXCOORD_0":171
					},
					"indices":168,
					"material":1
				}
			]
		}
	],
	"textures":[
		{
			"sampler":0,
			"source":0
		},
		{
			"sampler":0,
			"source":1
		},
		{
			"sampler":0,
			"source":2
		},
		{
			"sampler":0,
			"source":3
		},
		{
			"sampler":0,
			"source":4
		},
		{
			"sampler":0,
			"source":5
		},
		{
			"sampler":0,
			"source":6
		},
		{
			"sampler":0,
			"source":7
		},
		{
			"sampler":0,
			"source":8
		},
		{
			"sampler":0,
			"source":9
		},
		{
			"sampler":0,
			"source":10
		},
		{
			"sampler":0,
			"source":11
		}
	],
	"images":[
		{
			"mimeType":"image/png",
			"name":"Metal053B_2K-PNG_NormalGL",
			"uri":"Metal053B_2K-PNG_NormalGL.png"
		},
		{
			"mimeType":"image/png",
			"name":"Metal053B_2K-PNG_Color",
			"uri":"Metal053B_2K-PNG_Color.png"
		},
		{
			"mimeType":"image/png",
			"name":"Metal053B_2K-PNG_Metalness-Metal053B_2K-PNG_Roughness",
			"uri":"Metal053B_2K-PNG_Metalness-Metal053B_2K-PNG_Roughness.png"
		},
		{
			"mimeType":"image/png",
			"name":"metal_plate_02_nor_gl_4k",
			"uri":"metal_plate_02_nor_gl_4k.png"
		},
		{
			"mimeType":"image/jpeg",
			"name":"metal_plate_02_diff_4k",
			"uri":"metal_plate_02_diff_4k.jpg"
		},
		{
			"mimeType":"image/png",
			"name":"metal_plate_02_metal_4k-metal_plate_02_rough_4k",
			"uri":"metal_plate_02_metal_4k-metal_plate_02_rough_4k.png"
		},
		{
			"mimeType":"image/png",
			"name":"Metal046B_2K-PNG_NormalGL",
			"uri":"Metal046B_2K-PNG_NormalGL.png"
		},
		{
			"mimeType":"image/png",
			"name":"Metal046B_2K-PNG_Color",
			"uri":"Metal046B_2K-PNG_Color.png"
		},
		{
			"mimeType":"image/png",
			"name":"Metal046B_2K-PNG_Metalness-Metal046B_2K-PNG_Roughness",
			"uri":"Metal046B_2K-PNG_Metalness-Metal046B_2K-PNG_Roughness.png"
		},
		{
			"mimeType":"image/png",
			"name":"Metal037_2K-PNG_NormalGL",
			"uri":"Metal037_2K-PNG_NormalGL.png"
		},
		{
			"mimeType":"image/png",
			"name":"Metal037_2K-PNG_Color",
			"uri":"Metal037_2K-PNG_Color.png"
		},
		{
			"mimeType":"image/png",
			"name":"Metal037_2K-PNG_Metalness-Metal037_2K-PNG_Roughness",
			"uri":"Metal037_2K-PNG_Metalness-Metal037_2K-PNG_Roughness.png"
		}
	],
	"skins":[
		{
			"inverseBindMatrices":172,
			"joints":[
				0,
				1,
				2,
				3,
				56,
				6,
				14,
				10,
				23,
				19,
				15,
				31,
				27,
				39,
				35
			],
			"name":"Armature"
		}
	],
	"accessors":[
		{
			"bufferView":0,
			"componentType":5126,
			"count":24,
			"max":[
				-16.28573989868164,
				157.88424682617188,
				0.003900699783116579
			],
			"min":[
				-19.64423370361328,
				155.88424682617188,
				-5.589706897735596
			],
			"type":"VEC3"
		},
		{
			"bufferView":1,
			"componentType":5126,
			"count":24,
			"type":"VEC3"
		},
		{
			"bufferView":2,
			"componentType":5126,
			"count":24,
			"type":"VEC2"
		},
		{
			"bufferView":3,
			"componentType":5123,
			"count":36,
			"type":"SCALAR"
		},
		{
			"bufferView":4,
			"componentType":5126,
			"count":301,
			"max":[
				1.1190941333770752,
				-9.033638954162598,
				1.0000003576278687
			],
			"min":[
				-0.88090580701828,
				-9.393192291259766,
				-0.9999997019767761
			],
			"type":"VEC3"
		},
		{
			"bufferView":5,
			"componentType":5126,
			"count":301,
			"type":"VEC3"
		},
		{
			"bufferView":6,
			"componentType":5126,
			"count":301,
			"type":"VEC2"
		},
		{
			"bufferView":7,
			"componentType":5123,
			"count":1338,
			"type":"SCALAR"
		},
		{
			"bufferView":8,
			"componentType":5126,
			"count":314,
			"max":[
				0.4260746240615845,
				0.15463042259216309,
				0.857988715171814
			],
			"min":[
				-0.42607367038726807,
				-0.1549701690673828,
				-0.8029744625091553
			],
			"type":"VEC3"
		},
		{
			"bufferView":9,
			"componentType":5126,
			"count":314,
			"type":"VEC3"
		},
		{
			"bufferView":10,
			"componentType":5126,
			"count":314,
			"type":"VEC2"
		},
		{
			"bufferView":11,
			"componentType":5123,
			"count":984,
			"type":"SCALAR"
		},
		{
			"bufferView":12,
			"componentType":5126,
			"count":164,
			"max":[
				0.765000581741333,
				0.4561009407043457,
				0.7650008201599121
			],
			"min":[
				-0.764999270439148,
				-0.4561030864715576,
				-0.7649993896484375
			],
			"type":"VEC3"
		},
		{
			"bufferView":13,
			"componentType":5126,
			"count":164,
			"type":"VEC3"
		},
		{
			"bufferView":14,
			"componentType":5126,
			"count":164,
			"type":"VEC2"
		},
		{
			"bufferView":15,
			"componentType":5123,
			"count":564,
			"type":"SCALAR"
		},
		{
			"bufferView":16,
			"componentType":5126,
			"count":164,
			"max":[
				5.08565616607666,
				-3.3875818252563477,
				-6.645948886871338
			],
			"min":[
				3.5556564331054688,
				-4.424225807189941,
				-8.175949096679688
			],
			"type":"VEC3"
		},
		{
			"bufferView":17,
			"componentType":5126,
			"count":164,
			"type":"VEC3"
		},
		{
			"bufferView":18,
			"componentType":5126,
			"count":164,
			"type":"VEC2"
		},
		{
			"bufferView":19,
			"componentType":5123,
			"count":564,
			"type":"SCALAR"
		},
		{
			"bufferView":20,
			"componentType":5126,
			"count":136,
			"max":[
				0.5325926542282104,
				0.08420741558074951,
				1.1102445125579834
			],
			"min":[
				-0.5325927734375,
				-0.08420908451080322,
				-1.0779697895050049
			],
			"type":"VEC3"
		},
		{
			"bufferView":21,
			"componentType":5126,
			"count":136,
			"type":"VEC3"
		},
		{
			"bufferView":22,
			"componentType":5126,
			"count":136,
			"type":"VEC2"
		},
		{
			"bufferView":23,
			"componentType":5123,
			"count":372,
			"type":"SCALAR"
		},
		{
			"bufferView":24,
			"componentType":5126,
			"count":98,
			"max":[
				1.000000238418579,
				-0.34136947989463806,
				1
			],
			"min":[
				-0.9999998807907104,
				-0.41600632667541504,
				-1
			],
			"type":"VEC3"
		},
		{
			"bufferView":25,
			"componentType":5126,
			"count":98,
			"type":"VEC3"
		},
		{
			"bufferView":26,
			"componentType":5126,
			"count":98,
			"type":"VEC2"
		},
		{
			"bufferView":27,
			"componentType":5123,
			"count":282,
			"type":"SCALAR"
		},
		{
			"bufferView":28,
			"componentType":5126,
			"count":98,
			"max":[
				5.320657730102539,
				-4.18723201751709,
				-11.772192001342773
			],
			"min":[
				3.320657253265381,
				-4.249451637268066,
				-13.772192001342773
			],
			"type":"VEC3"
		},
		{
			"bufferView":29,
			"componentType":5126,
			"count":98,
			"type":"VEC3"
		},
		{
			"bufferView":30,
			"componentType":5126,
			"count":98,
			"type":"VEC2"
		},
		{
			"bufferView":31,
			"componentType":5123,
			"count":282,
			"type":"SCALAR"
		},
		{
			"bufferView":32,
			"componentType":5126,
			"count":314,
			"max":[
				0.4260742664337158,
				0.15462815761566162,
				0.9485867023468018
			],
			"min":[
				-0.42607414722442627,
				-0.15497243404388428,
				-0.8542568683624268
			],
			"type":"VEC3"
		},
		{
			"bufferView":33,
			"componentType":5126,
			"count":314,
			"type":"VEC3"
		},
		{
			"bufferView":34,
			"componentType":5126,
			"count":314,
			"type":"VEC2"
		},
		{
			"bufferView":35,
			"componentType":5123,
			"count":984,
			"type":"SCALAR"
		},
		{
			"bufferView":36,
			"componentType":5126,
			"count":164,
			"max":[
				0.7650008201599121,
				0.4561023712158203,
				0.7650012969970703
			],
			"min":[
				-0.7649991512298584,
				-0.4561018943786621,
				-0.7649989128112793
			],
			"type":"VEC3"
		},
		{
			"bufferView":37,
			"componentType":5126,
			"count":164,
			"type":"VEC3"
		},
		{
			"bufferView":38,
			"componentType":5126,
			"count":164,
			"type":"VEC2"
		},
		{
			"bufferView":39,
			"componentType":5123,
			"count":564,
			"type":"SCALAR"
		},
		{
			"bufferView":40,
			"componentType":5126,
			"count":228,
			"max":[
				-4.003442287445068,
				-3.8863019943237305,
				-7.209075450897217
			],
			"min":[
				-5.533442497253418,
				-4.922946453094482,
				-8.739075660705566
			],
			"type":"VEC3"
		},
		{
			"bufferView":41,
			"componentType":5126,
			"count":228,
			"type":"VEC3"
		},
		{
			"bufferView":42,
			"componentType":5126,
			"count":228,
			"type":"VEC2"
		},
		{
			"bufferView":43,
			"componentType":5123,
			"count":744,
			"type":"SCALAR"
		},
		{
			"bufferView":44,
			"componentType":5126,
			"count":136,
			"max":[
				0.5325924158096313,
				0.08420765399932861,
				1.1876015663146973
			],
			"min":[
				-0.5325931310653687,
				-0.08420884609222412,
				-1.146226406097412
			],
			"type":"VEC3"
		},
		{
			"bufferView":45,
			"componentType":5126,
			"count":136,
			"type":"VEC3"
		},
		{
			"bufferView":46,
			"componentType":5126,
			"count":136,
			"type":"VEC2"
		},
		{
			"bufferView":47,
			"componentType":5126,
			"count":98,
			"max":[
				1.0000004768371582,
				-0.5236856937408447,
				1.0000004768371582
			],
			"min":[
				-0.9999997615814209,
				-0.5983238220214844,
				-1
			],
			"type":"VEC3"
		},
		{
			"bufferView":48,
			"componentType":5126,
			"count":98,
			"type":"VEC3"
		},
		{
			"bufferView":49,
			"componentType":5126,
			"count":98,
			"type":"VEC2"
		},
		{
			"bufferView":50,
			"componentType":5123,
			"count":282,
			"type":"SCALAR"
		},
		{
			"bufferView":51,
			"componentType":5126,
			"count":98,
			"max":[
				-3.7684383392333984,
				-4.685720920562744,
				-12.809443473815918
			],
			"min":[
				-5.768438339233398,
				-4.747941493988037,
				-14.809443473815918
			],
			"type":"VEC3"
		},
		{
			"bufferView":52,
			"componentType":5126,
			"count":98,
			"type":"VEC3"
		},
		{
			"bufferView":53,
			"componentType":5126,
			"count":98,
			"type":"VEC2"
		},
		{
			"bufferView":54,
			"componentType":5126,
			"count":314,
			"max":[
				0.4260746240615845,
				0.1549701690673828,
				0.857988715171814
			],
			"min":[
				-0.42607367038726807,
				-0.15463042259216309,
				-0.8029744625091553
			],
			"type":"VEC3"
		},
		{
			"bufferView":55,
			"componentType":5126,
			"count":314,
			"type":"VEC3"
		},
		{
			"bufferView":56,
			"componentType":5126,
			"count":314,
			"type":"VEC2"
		},
		{
			"bufferView":57,
			"componentType":5123,
			"count":984,
			"type":"SCALAR"
		},
		{
			"bufferView":58,
			"componentType":5126,
			"count":164,
			"max":[
				0.765000581741333,
				0.4561030864715576,
				0.7650008201599121
			],
			"min":[
				-0.764999270439148,
				-0.4561009407043457,
				-0.7649993896484375
			],
			"type":"VEC3"
		},
		{
			"bufferView":59,
			"componentType":5126,
			"count":164,
			"type":"VEC3"
		},
		{
			"bufferView":60,
			"componentType":5126,
			"count":164,
			"type":"VEC2"
		},
		{
			"bufferView":61,
			"componentType":5123,
			"count":564,
			"type":"SCALAR"
		},
		{
			"bufferView":62,
			"componentType":5126,
			"count":164,
			"max":[
				5.08565616607666,
				4.424225807189941,
				-6.645948886871338
			],
			"min":[
				3.5556564331054688,
				3.3875818252563477,
				-8.175949096679688
			],
			"type":"VEC3"
		},
		{
			"bufferView":63,
			"componentType":5126,
			"count":164,
			"type":"VEC3"
		},
		{
			"bufferView":64,
			"componentType":5126,
			"count":164,
			"type":"VEC2"
		},
		{
			"bufferView":65,
			"componentType":5123,
			"count":564,
			"type":"SCALAR"
		},
		{
			"bufferView":66,
			"componentType":5126,
			"count":136,
			"max":[
				0.5325926542282104,
				0.08420908451080322,
				1.1102445125579834
			],
			"min":[
				-0.5325927734375,
				-0.08420741558074951,
				-1.0779697895050049
			],
			"type":"VEC3"
		},
		{
			"bufferView":67,
			"componentType":5126,
			"count":136,
			"type":"VEC3"
		},
		{
			"bufferView":68,
			"componentType":5126,
			"count":136,
			"type":"VEC2"
		},
		{
			"bufferView":69,
			"componentType":5123,
			"count":372,
			"type":"SCALAR"
		},
		{
			"bufferView":70,
			"componentType":5126,
			"count":98,
			"max":[
				1.000000238418579,
				0.41600632667541504,
				1
			],
			"min":[
				-0.9999998807907104,
				0.34136849641799927,
				-1
			],
			"type":"VEC3"
		},
		{
			"bufferView":71,
			"componentType":5126,
			"count":98,
			"type":"VEC3"
		},
		{
			"bufferView":72,
			"componentType":5126,
			"count":98,
			"type":"VEC2"
		},
		{
			"bufferView":73,
			"componentType":5123,
			"count":282,
			"type":"SCALAR"
		},
		{
			"bufferView":74,
			"componentType":5126,
			"count":98,
			"max":[
				5.320657730102539,
				4.249451637268066,
				-11.772192001342773
			],
			"min":[
				3.320657253265381,
				4.186313629150391,
				-13.772192001342773
			],
			"type":"VEC3"
		},
		{
			"bufferView":75,
			"componentType":5126,
			"count":98,
			"type":"VEC3"
		},
		{
			"bufferView":76,
			"componentType":5126,
			"count":98,
			"type":"VEC2"
		},
		{
			"bufferView":77,
			"componentType":5123,
			"count":282,
			"type":"SCALAR"
		},
		{
			"bufferView":78,
			"componentType":5126,
			"count":314,
			"max":[
				0.4260742664337158,
				0.15497243404388428,
				0.9485867023468018
			],
			"min":[
				-0.42607414722442627,
				-0.15462815761566162,
				-0.8542568683624268
			],
			"type":"VEC3"
		},
		{
			"bufferView":79,
			"componentType":5126,
			"count":314,
			"type":"VEC3"
		},
		{
			"bufferView":80,
			"componentType":5126,
			"count":314,
			"type":"VEC2"
		},
		{
			"bufferView":81,
			"componentType":5123,
			"count":984,
			"type":"SCALAR"
		},
		{
			"bufferView":82,
			"componentType":5126,
			"count":164,
			"max":[
				0.7650008201599121,
				0.4561018943786621,
				0.7650012969970703
			],
			"min":[
				-0.7649991512298584,
				-0.4561023712158203,
				-0.7649989128112793
			],
			"type":"VEC3"
		},
		{
			"bufferView":83,
			"componentType":5126,
			"count":164,
			"type":"VEC3"
		},
		{
			"bufferView":84,
			"componentType":5126,
			"count":164,
			"type":"VEC2"
		},
		{
			"bufferView":85,
			"componentType":5123,
			"count":564,
			"type":"SCALAR"
		},
		{
			"bufferView":86,
			"componentType":5126,
			"count":164,
			"max":[
				-4.003442287445068,
				4.922946453094482,
				-7.209075450897217
			],
			"min":[
				-5.533442497253418,
				3.8863019943237305,
				-8.739075660705566
			],
			"type":"VEC3"
		},
		{
			"bufferView":87,
			"componentType":5126,
			"count":164,
			"type":"VEC3"
		},
		{
			"bufferView":88,
			"componentType":5126,
			"count":164,
			"type":"VEC2"
		},
		{
			"bufferView":89,
			"componentType":5123,
			"count":564,
			"type":"SCALAR"
		},
		{
			"bufferView":90,
			"componentType":5126,
			"count":136,
			"max":[
				0.5325924158096313,
				0.08420884609222412,
				1.1876015663146973
			],
			"min":[
				-0.5325931310653687,
				-0.08420765399932861,
				-1.146226406097412
			],
			"type":"VEC3"
		},
		{
			"bufferView":91,
			"componentType":5126,
			"count":136,
			"type":"VEC3"
		},
		{
			"bufferView":92,
			"componentType":5126,
			"count":136,
			"type":"VEC2"
		},
		{
			"bufferView":93,
			"componentType":5126,
			"count":98,
			"max":[
				1.0000004768371582,
				0.5983238220214844,
				1.0000004768371582
			],
			"min":[
				-0.9999997615814209,
				0.5236866474151611,
				-1
			],
			"type":"VEC3"
		},
		{
			"bufferView":94,
			"componentType":5126,
			"count":98,
			"type":"VEC3"
		},
		{
			"bufferView":95,
			"componentType":5126,
			"count":98,
			"type":"VEC2"
		},
		{
			"bufferView":96,
			"componentType":5123,
			"count":282,
			"type":"SCALAR"
		},
		{
			"bufferView":97,
			"componentType":5126,
			"count":98,
			"max":[
				-3.7684383392333984,
				4.747941493988037,
				-12.809443473815918
			],
			"min":[
				-5.768438339233398,
				4.68546724319458,
				-14.809443473815918
			],
			"type":"VEC3"
		},
		{
			"bufferView":98,
			"componentType":5126,
			"count":98,
			"type":"VEC3"
		},
		{
			"bufferView":99,
			"componentType":5126,
			"count":98,
			"type":"VEC2"
		},
		{
			"bufferView":100,
			"componentType":5123,
			"count":282,
			"type":"SCALAR"
		},
		{
			"bufferView":101,
			"componentType":5126,
			"count":31,
			"max":[
				0.7106776833534241,
				4.404453277587891,
				1.3256685349460895e-07
			],
			"min":[
				-0.3258432447910309,
				4.244260787963867,
				-1.7651845216751099
			],
			"type":"VEC3"
		},
		{
			"bufferView":102,
			"componentType":5126,
			"count":31,
			"type":"VEC3"
		},
		{
			"bufferView":103,
			"componentType":5126,
			"count":31,
			"type":"VEC2"
		},
		{
			"bufferView":104,
			"componentType":5123,
			"count":57,
			"type":"SCALAR"
		},
		{
			"bufferView":105,
			"componentType":5126,
			"count":120,
			"max":[
				0.08529143035411835,
				4.70895528793335,
				-0.22271543741226196
			],
			"min":[
				-1.8145766258239746,
				2.507974624633789,
				-1.6995028257369995
			],
			"type":"VEC3"
		},
		{
			"bufferView":106,
			"componentType":5126,
			"count":120,
			"type":"VEC3"
		},
		{
			"bufferView":107,
			"componentType":5126,
			"count":120,
			"type":"VEC2"
		},
		{
			"bufferView":108,
			"componentType":5123,
			"count":282,
			"type":"SCALAR"
		},
		{
			"bufferView":109,
			"componentType":5126,
			"count":54,
			"max":[
				1.2878084182739258,
				4.378887176513672,
				0
			],
			"min":[
				-4.295380115509033,
				3.9704973697662354,
				-1.7651845216751099
			],
			"type":"VEC3"
		},
		{
			"bufferView":110,
			"componentType":5126,
			"count":54,
			"type":"VEC3"
		},
		{
			"bufferView":111,
			"componentType":5126,
			"count":54,
			"type":"VEC2"
		},
		{
			"bufferView":112,
			"componentType":5123,
			"count":105,
			"type":"SCALAR"
		},
		{
			"bufferView":113,
			"componentType":5126,
			"count":75,
			"max":[
				2.8564939498901367,
				8.308890342712402,
				-1.1116466522216797
			],
			"min":[
				-0.2396460771560669,
				4.422910690307617,
				-2.645414352416992
			],
			"type":"VEC3"
		},
		{
			"bufferView":114,
			"componentType":5126,
			"count":75,
			"type":"VEC3"
		},
		{
			"bufferView":115,
			"componentType":5126,
			"count":75,
			"type":"VEC2"
		},
		{
			"bufferView":116,
			"componentType":5123,
			"count":156,
			"type":"SCALAR"
		},
		{
			"bufferView":117,
			"componentType":5126,
			"count":384,
			"max":[
				3.6200027465820312,
				7.298793792724609,
				0
			],
			"min":[
				-2.715996265411377,
				4.130793571472168,
				-2.217599868774414
			],
			"type":"VEC3"
		},
		{
			"bufferView":118,
			"componentType":5126,
			"count":384,
			"type":"VEC3"
		},
		{
			"bufferView":119,
			"componentType":5126,
			"count":384,
			"type":"VEC2"
		},
		{
			"bufferView":120,
			"componentType":5123,
			"count":948,
			"type":"SCALAR"
		},
		{
			"bufferView":121,
			"componentType":5126,
			"count":150,
			"max":[
				-2.8743369579315186,
				6.040813446044922,
				-0.5940943956375122
			],
			"min":[
				-2.950428009033203,
				4.390451431274414,
				-1.5037071704864502
			],
			"type":"VEC3"
		},
		{
			"bufferView":122,
			"componentType":5126,
			"count":150,
			"type":"VEC3"
		},
		{
			"bufferView":123,
			"componentType":5126,
			"count":150,
			"type":"VEC2"
		},
		{
			"bufferView":124,
			"componentType":5123,
			"count":300,
			"type":"SCALAR"
		},
		{
			"bufferView":125,
			"componentType":5126,
			"count":28,
			"max":[
				-26.73170280456543,
				44.4957389831543,
				-13.804849624633789
			],
			"min":[
				-27.378440856933594,
				42.06324768066406,
				-14.526330947875977
			],
			"type":"VEC3"
		},
		{
			"bufferView":126,
			"componentType":5126,
			"count":28,
			"type":"VEC3"
		},
		{
			"bufferView":127,
			"componentType":5126,
			"count":28,
			"type":"VEC2"
		},
		{
			"bufferView":128,
			"componentType":5123,
			"count":114,
			"type":"SCALAR"
		},
		{
			"bufferView":129,
			"componentType":5126,
			"count":232,
			"max":[
				-8.212295532226562,
				-5.52601704839617e-06,
				-65.81761932373047
			],
			"min":[
				-10.212295532226562,
				-1.00006902217865,
				-68.54192352294922
			],
			"type":"VEC3"
		},
		{
			"bufferView":130,
			"componentType":5126,
			"count":232,
			"type":"VEC3"
		},
		{
			"bufferView":131,
			"componentType":5126,
			"count":232,
			"type":"VEC2"
		},
		{
			"bufferView":132,
			"componentType":5123,
			"count":816,
			"type":"SCALAR"
		},
		{
			"bufferView":133,
			"componentType":5126,
			"count":38,
			"max":[
				-4.079801559448242,
				58.293373107910156,
				-3.829664707183838
			],
			"min":[
				-5.1757354736328125,
				41.78267288208008,
				-5.541038513183594
			],
			"type":"VEC3"
		},
		{
			"bufferView":134,
			"componentType":5126,
			"count":38,
			"type":"VEC3"
		},
		{
			"bufferView":135,
			"componentType":5126,
			"count":38,
			"type":"VEC2"
		},
		{
			"bufferView":136,
			"componentType":5123,
			"count":63,
			"type":"SCALAR"
		},
		{
			"bufferView":137,
			"componentType":5126,
			"count":354,
			"max":[
				-2.73103928565979,
				4.0489606857299805,
				0
			],
			"min":[
				-2.9415414333343506,
				3.9727470874786377,
				-0.4778546094894409
			],
			"type":"VEC3"
		},
		{
			"bufferView":138,
			"componentType":5126,
			"count":354,
			"type":"VEC3"
		},
		{
			"bufferView":139,
			"componentType":5126,
			"count":354,
			"type":"VEC2"
		},
		{
			"bufferView":140,
			"componentType":5123,
			"count":804,
			"type":"SCALAR"
		},
		{
			"bufferView":141,
			"componentType":5126,
			"count":52,
			"max":[
				-29.773944854736328,
				46.24143981933594,
				-5.144974231719971
			],
			"min":[
				-30.88111114501953,
				42.6744499206543,
				-7.759475231170654
			],
			"type":"VEC3"
		},
		{
			"bufferView":142,
			"componentType":5126,
			"count":52,
			"type":"VEC3"
		},
		{
			"bufferView":143,
			"componentType":5126,
			"count":52,
			"type":"VEC2"
		},
		{
			"bufferView":144,
			"componentType":5123,
			"count":78,
			"type":"SCALAR"
		},
		{
			"bufferView":145,
			"componentType":5126,
			"count":350,
			"max":[
				-2.73103928565979,
				4.0489606857299805,
				0
			],
			"min":[
				-2.9415414333343506,
				3.9727470874786377,
				-0.4775424599647522
			],
			"type":"VEC3"
		},
		{
			"bufferView":146,
			"componentType":5126,
			"count":350,
			"type":"VEC3"
		},
		{
			"bufferView":147,
			"componentType":5126,
			"count":350,
			"type":"VEC2"
		},
		{
			"bufferView":148,
			"componentType":5123,
			"count":792,
			"type":"SCALAR"
		},
		{
			"bufferView":149,
			"componentType":5126,
			"count":12,
			"max":[
				0.8700875639915466,
				5.031603813171387,
				-2.217599868774414
			],
			"min":[
				-0.7619169354438782,
				4.1573100090026855,
				-2.3144617080688477
			],
			"type":"VEC3"
		},
		{
			"bufferView":150,
			"componentType":5126,
			"count":12,
			"type":"VEC3"
		},
		{
			"bufferView":151,
			"componentType":5126,
			"count":12,
			"type":"VEC2"
		},
		{
			"bufferView":152,
			"componentType":5123,
			"count":18,
			"type":"SCALAR"
		},
		{
			"bufferView":153,
			"componentType":5126,
			"count":77,
			"max":[
				-2.979245662689209,
				16.508745193481445,
				-2.45845103263855
			],
			"min":[
				-4.979245662689209,
				15.624808311462402,
				-4.458450794219971
			],
			"type":"VEC3"
		},
		{
			"bufferView":154,
			"componentType":5126,
			"count":77,
			"type":"VEC3"
		},
		{
			"bufferView":155,
			"componentType":5126,
			"count":77,
			"type":"VEC2"
		},
		{
			"bufferView":156,
			"componentType":5123,
			"count":144,
			"type":"SCALAR"
		},
		{
			"bufferView":157,
			"componentType":5126,
			"count":26,
			"max":[
				-2.2963311672210693,
				7.805601119995117,
				-1.24906325340271
			],
			"min":[
				-2.417372703552246,
				7.769023895263672,
				-2.051853895187378
			],
			"type":"VEC3"
		},
		{
			"bufferView":158,
			"componentType":5126,
			"count":26,
			"type":"VEC3"
		},
		{
			"bufferView":159,
			"componentType":5126,
			"count":26,
			"type":"VEC2"
		},
		{
			"bufferView":160,
			"componentType":5123,
			"count":42,
			"type":"SCALAR"
		},
		{
			"bufferView":161,
			"componentType":5126,
			"count":20,
			"max":[
				-4.644857406616211,
				3.4744839668273926,
				2.4879182092263363e-07
			],
			"min":[
				-7.193456649780273,
				0.9905949831008911,
				-2.1477675437927246
			],
			"type":"VEC3"
		},
		{
			"bufferView":162,
			"componentType":5126,
			"count":20,
			"type":"VEC3"
		},
		{
			"bufferView":163,
			"componentType":5126,
			"count":20,
			"type":"VEC2"
		},
		{
			"bufferView":164,
			"componentType":5123,
			"count":36,
			"type":"SCALAR"
		},
		{
			"bufferView":165,
			"componentType":5126,
			"count":12,
			"max":[
				-0.21537666022777557,
				6.552043914794922,
				-1.2566004991531372
			],
			"min":[
				-0.8469937443733215,
				6.45583438873291,
				-1.5866378545761108
			],
			"type":"VEC3"
		},
		{
			"bufferView":166,
			"componentType":5126,
			"count":12,
			"type":"VEC3"
		},
		{
			"bufferView":167,
			"componentType":5126,
			"count":12,
			"type":"VEC2"
		},
		{
			"bufferView":168,
			"componentType":5123,
			"count":18,
			"type":"SCALAR"
		},
		{
			"bufferView":169,
			"componentType":5126,
			"count":12,
			"max":[
				1.0789334774017334,
				6.552043914794922,
				-1.2566004991531372
			],
			"min":[
				0.7689023613929749,
				6.45583438873291,
				-1.5866378545761108
			],
			"type":"VEC3"
		},
		{
			"bufferView":170,
			"componentType":5126,
			"count":12,
			"type":"VEC3"
		},
		{
			"bufferView":171,
			"componentType":5126,
			"count":12,
			"type":"VEC2"
		},
		{
			"bufferView":172,
			"componentType":5126,
			"count":15,
			"type":"MAT4"
		}
	],
	"bufferViews":[
		{
			"buffer":0,
			"byteLength":288,
			"byteOffset":0,
			"target":34962
		},
		{
			"buffer":0,
			"byteLength":288,
			"byteOffset":288,
			"target":34962
		},
		{
			"buffer":0,
			"byteLength":192,
			"byteOffset":576,
			"target":34962
		},
		{
			"buffer":0,
			"byteLength":72,
			"byteOffset":768,
			"target":34963
		},
		{
			"buffer":0,
			"byteLength":3612,
			"byteOffset":840,
			"target":34962
		},
		{
			"buffer":0,
			"byteLength":3612,
			"byteOffset":4452,
			"target":34962
		},
		{
			"buffer":0,
			"byteLength":2408,
			"byteOffset":8064,
			"target":34962
		},
		{
			"buffer":0,
			"byteLength":2676,
			"byteOffset":10472,
			"target":34963
		},
		{
			"buffer":0,
			"byteLength":3768,
			"byteOffset":13148,
			"target":34962
		},
		{
			"buffer":0,
			"byteLength":3768,
			"byteOffset":16916,
			"target":34962
		},
		{
			"buffer":0,
			"byteLength":2512,
			"byteOffset":20684,
			"target":34962
		},
		{
			"buffer":0,
			"byteLength":1968,
			"byteOffset":23196,
			"target":34963
		},
		{
			"buffer":0,
			"byteLength":1968,
			"byteOffset":25164,
			"target":34962
		},
		{
			"buffer":0,
			"byteLength":1968,
			"byteOffset":27132,
			"target":34962
		},
		{
			"buffer":0,
			"byteLength":1312,
			"byteOffset":29100,
			"target":34962
		},
		{
			"buffer":0,
			"byteLength":1128,
			"byteOffset":30412,
			"target":34963
		},
		{
			"buffer":0,
			"byteLength":1968,
			"byteOffset":31540,
			"target":34962
		},
		{
			"buffer":0,
			"byteLength":1968,
			"byteOffset":33508,
			"target":34962
		},
		{
			"buffer":0,
			"byteLength":1312,
			"byteOffset":35476,
			"target":34962
		},
		{
			"buffer":0,
			"byteLength":1128,
			"byteOffset":36788,
			"target":34963
		},
		{
			"buffer":0,
			"byteLength":1632,
			"byteOffset":37916,
			"target":34962
		},
		{
			"buffer":0,
			"byteLength":1632,
			"byteOffset":39548,
			"target":34962
		},
		{
			"buffer":0,
			"byteLength":1088,
			"byteOffset":41180,
			"target":34962
		},
		{
			"buffer":0,
			"byteLength":744,
			"byteOffset":42268,
			"target":34963
		},
		{
			"buffer":0,
			"byteLength":1176,
			"byteOffset":43012,
			"target":34962
		},
		{
			"buffer":0,
			"byteLength":1176,
			"byteOffset":44188,
			"target":34962
		},
		{
			"buffer":0,
			"byteLength":784,
			"byteOffset":45364,
			"target":34962
		},
		{
			"buffer":0,
			"byteLength":564,
			"byteOffset":46148,
			"target":34963
		},
		{
			"buffer":0,
			"byteLength":1176,
			"byteOffset":46712,
			"target":34962
		},
		{
			"buffer":0,
			"byteLength":1176,
			"byteOffset":47888,
			"target":34962
		},
		{
			"buffer":0,
			"byteLength":784,
			"byteOffset":49064,
			"target":34962
		},
		{
			"buffer":0,
			"byteLength":564,
			"byteOffset":49848,
			"target":34963
		},
		{
			"buffer":0,
			"byteLength":3768,
			"byteOffset":50412,
			"target":34962
		},
		{
			"buffer":0,
			"byteLength":3768,
			"byteOffset":54180,
			"target":34962
		},
		{
			"buffer":0,
			"byteLength":2512,
			"byteOffset":57948,
			"target":34962
		},
		{
			"buffer":0,
			"byteLength":1968,
			"byteOffset":60460,
			"target":34963
		},
		{
			"buffer":0,
			"byteLength":1968,
			"byteOffset":62428,
			"target":34962
		},
		{
			"buffer":0,
			"byteLength":1968,
			"byteOffset":64396,
			"target":34962
		},
		{
			"buffer":0,
			"byteLength":1312,
			"byteOffset":66364,
			"target":34962
		},
		{
			"buffer":0,
			"byteLength":1128,
			"byteOffset":67676,
			"target":34963
		},
		{
			"buffer":0,
			"byteLength":2736,
			"byteOffset":68804,
			"target":34962
		},
		{
			"buffer":0,
			"byteLength":2736,
			"byteOffset":71540,
			"target":34962
		},
		{
			"buffer":0,
			"byteLength":1824,
			"byteOffset":74276,
			"target":34962
		},
		{
			"buffer":0,
			"byteLength":1488,
			"byteOffset":76100,
			"target":34963
		},
		{
			"buffer":0,
			"byteLength":1632,
			"byteOffset":77588,
			"target":34962
		},
		{
			"buffer":0,
			"byteLength":1632,
			"byteOffset":79220,
			"target":34962
		},
		{
			"buffer":0,
			"byteLength":1088,
			"byteOffset":80852,
			"target":34962
		},
		{
			"buffer":0,
			"byteLength":1176,
			"byteOffset":81940,
			"target":34962
		},
		{
			"buffer":0,
			"byteLength":1176,
			"byteOffset":83116,
			"target":34962
		},
		{
			"buffer":0,
			"byteLength":784,
			"byteOffset":84292,
			"target":34962
		},
		{
			"buffer":0,
			"byteLength":564,
			"byteOffset":85076,
			"target":34963
		},
		{
			"buffer":0,
			"byteLength":1176,
			"byteOffset":85640,
			"target":34962
		},
		{
			"buffer":0,
			"byteLength":1176,
			"byteOffset":86816,
			"target":34962
		},
		{
			"buffer":0,
			"byteLength":784,
			"byteOffset":87992,
			"target":34962
		},
		{
			"buffer":0,
			"byteLength":3768,
			"byteOffset":88776,
			"target":34962
		},
		{
			"buffer":0,
			"byteLength":3768,
			"byteOffset":92544,
			"target":34962
		},
		{
			"buffer":0,
			"byteLength":2512,
			"byteOffset":96312,
			"target":34962
		},
		{
			"buffer":0,
			"byteLength":1968,
			"byteOffset":98824,
			"target":34963
		},
		{
			"buffer":0,
			"byteLength":1968,
			"byteOffset":100792,
			"target":34962
		},
		{
			"buffer":0,
			"byteLength":1968,
			"byteOffset":102760,
			"target":34962
		},
		{
			"buffer":0,
			"byteLength":1312,
			"byteOffset":104728,
			"target":34962
		},
		{
			"buffer":0,
			"byteLength":1128,
			"byteOffset":106040,
			"target":34963
		},
		{
			"buffer":0,
			"byteLength":1968,
			"byteOffset":107168,
			"target":34962
		},
		{
			"buffer":0,
			"byteLength":1968,
			"byteOffset":109136,
			"target":34962
		},
		{
			"buffer":0,
			"byteLength":1312,
			"byteOffset":111104,
			"target":34962
		},
		{
			"buffer":0,
			"byteLength":1128,
			"byteOffset":112416,
			"target":34963
		},
		{
			"buffer":0,
			"byteLength":1632,
			"byteOffset":113544,
			"target":34962
		},
		{
			"buffer":0,
			"byteLength":1632,
			"byteOffset":115176,
			"target":34962
		},
		{
			"buffer":0,
			"byteLength":1088,
			"byteOffset":116808,
			"target":34962
		},
		{
			"buffer":0,
			"byteLength":744,
			"byteOffset":117896,
			"target":34963
		},
		{
			"buffer":0,
			"byteLength":1176,
			"byteOffset":118640,
			"target":34962
		},
		{
			"buffer":0,
			"byteLength":1176,
			"byteOffset":119816,
			"target":34962
		},
		{
			"buffer":0,
			"byteLength":784,
			"byteOffset":120992,
			"target":34962
		},
		{
			"buffer":0,
			"byteLength":564,
			"byteOffset":121776,
			"target":34963
		},
		{
			"buffer":0,
			"byteLength":1176,
			"byteOffset":122340,
			"target":34962
		},
		{
			"buffer":0,
			"byteLength":1176,
			"byteOffset":123516,
			"target":34962
		},
		{
			"buffer":0,
			"byteLength":784,
			"byteOffset":124692,
			"target":34962
		},
		{
			"buffer":0,
			"byteLength":564,
			"byteOffset":125476,
			"target":34963
		},
		{
			"buffer":0,
			"byteLength":3768,
			"byteOffset":126040,
			"target":34962
		},
		{
			"buffer":0,
			"byteLength":3768,
			"byteOffset":129808,
			"target":34962
		},
		{
			"buffer":0,
			"byteLength":2512,
			"byteOffset":133576,
			"target":34962
		},
		{
			"buffer":0,
			"byteLength":1968,
			"byteOffset":136088,
			"target":34963
		},
		{
			"buffer":0,
			"byteLength":1968,
			"byteOffset":138056,
			"target":34962
		},
		{
			"buffer":0,
			"byteLength":1968,
			"byteOffset":140024,
			"target":34962
		},
		{
			"buffer":0,
			"byteLength":1312,
			"byteOffset":141992,
			"target":34962
		},
		{
			"buffer":0,
			"byteLength":1128,
			"byteOffset":143304,
			"target":34963
		},
		{
			"buffer":0,
			"byteLength":1968,
			"byteOffset":144432,
			"target":34962
		},
		{
			"buffer":0,
			"byteLength":1968,
			"byteOffset":146400,
			"target":34962
		},
		{
			"buffer":0,
			"byteLength":1312,
			"byteOffset":148368,
			"target":34962
		},
		{
			"buffer":0,
			"byteLength":1128,
			"byteOffset":149680,
			"target":34963
		},
		{
			"buffer":0,
			"byteLength":1632,
			"byteOffset":150808,
			"target":34962
		},
		{
			"buffer":0,
			"byteLength":1632,
			"byteOffset":152440,
			"target":34962
		},
		{
			"buffer":0,
			"byteLength":1088,
			"byteOffset":154072,
			"target":34962
		},
		{
			"buffer":0,
			"byteLength":1176,
			"byteOffset":155160,
			"target":34962
		},
		{
			"buffer":0,
			"byteLength":1176,
			"byteOffset":156336,
			"target":34962
		},
		{
			"buffer":0,
			"byteLength":784,
			"byteOffset":157512,
			"target":34962
		},
		{
			"buffer":0,
			"byteLength":564,
			"byteOffset":158296,
			"target":34963
		},
		{
			"buffer":0,
			"byteLength":1176,
			"byteOffset":158860,
			"target":34962
		},
		{
			"buffer":0,
			"byteLength":1176,
			"byteOffset":160036,
			"target":34962
		},
		{
			"buffer":0,
			"byteLength":784,
			"byteOffset":161212,
			"target":34962
		},
		{
			"buffer":0,
			"byteLength":564,
			"byteOffset":161996,
			"target":34963
		},
		{
			"buffer":0,
			"byteLength":372,
			"byteOffset":162560,
			"target":34962
		},
		{
			"buffer":0,
			"byteLength":372,
			"byteOffset":162932,
			"target":34962
		},
		{
			"buffer":0,
			"byteLength":248,
			"byteOffset":163304,
			"target":34962
		},
		{
			"buffer":0,
			"byteLength":114,
			"byteOffset":163552,
			"target":34963
		},
		{
			"buffer":0,
			"byteLength":1440,
			"byteOffset":163668,
			"target":34962
		},
		{
			"buffer":0,
			"byteLength":1440,
			"byteOffset":165108,
			"target":34962
		},
		{
			"buffer":0,
			"byteLength":960,
			"byteOffset":166548,
			"target":34962
		},
		{
			"buffer":0,
			"byteLength":564,
			"byteOffset":167508,
			"target":34963
		},
		{
			"buffer":0,
			"byteLength":648,
			"byteOffset":168072,
			"target":34962
		},
		{
			"buffer":0,
			"byteLength":648,
			"byteOffset":168720,
			"target":34962
		},
		{
			"buffer":0,
			"byteLength":432,
			"byteOffset":169368,
			"target":34962
		},
		{
			"buffer":0,
			"byteLength":210,
			"byteOffset":169800,
			"target":34963
		},
		{
			"buffer":0,
			"byteLength":900,
			"byteOffset":170012,
			"target":34962
		},
		{
			"buffer":0,
			"byteLength":900,
			"byteOffset":170912,
			"target":34962
		},
		{
			"buffer":0,
			"byteLength":600,
			"byteOffset":171812,
			"target":34962
		},
		{
			"buffer":0,
			"byteLength":312,
			"byteOffset":172412,
			"target":34963
		},
		{
			"buffer":0,
			"byteLength":4608,
			"byteOffset":172724,
			"target":34962
		},
		{
			"buffer":0,
			"byteLength":4608,
			"byteOffset":177332,
			"target":34962
		},
		{
			"buffer":0,
			"byteLength":3072,
			"byteOffset":181940,
			"target":34962
		},
		{
			"buffer":0,
			"byteLength":1896,
			"byteOffset":185012,
			"target":34963
		},
		{
			"buffer":0,
			"byteLength":1800,
			"byteOffset":186908,
			"target":34962
		},
		{
			"buffer":0,
			"byteLength":1800,
			"byteOffset":188708,
			"target":34962
		},
		{
			"buffer":0,
			"byteLength":1200,
			"byteOffset":190508,
			"target":34962
		},
		{
			"buffer":0,
			"byteLength":600,
			"byteOffset":191708,
			"target":34963
		},
		{
			"buffer":0,
			"byteLength":336,
			"byteOffset":192308,
			"target":34962
		},
		{
			"buffer":0,
			"byteLength":336,
			"byteOffset":192644,
			"target":34962
		},
		{
			"buffer":0,
			"byteLength":224,
			"byteOffset":192980,
			"target":34962
		},
		{
			"buffer":0,
			"byteLength":228,
			"byteOffset":193204,
			"target":34963
		},
		{
			"buffer":0,
			"byteLength":2784,
			"byteOffset":193432,
			"target":34962
		},
		{
			"buffer":0,
			"byteLength":2784,
			"byteOffset":196216,
			"target":34962
		},
		{
			"buffer":0,
			"byteLength":1856,
			"byteOffset":199000,
			"target":34962
		},
		{
			"buffer":0,
			"byteLength":1632,
			"byteOffset":200856,
			"target":34963
		},
		{
			"buffer":0,
			"byteLength":456,
			"byteOffset":202488,
			"target":34962
		},
		{
			"buffer":0,
			"byteLength":456,
			"byteOffset":202944,
			"target":34962
		},
		{
			"buffer":0,
			"byteLength":304,
			"byteOffset":203400,
			"target":34962
		},
		{
			"buffer":0,
			"byteLength":126,
			"byteOffset":203704,
			"target":34963
		},
		{
			"buffer":0,
			"byteLength":4248,
			"byteOffset":203832,
			"target":34962
		},
		{
			"buffer":0,
			"byteLength":4248,
			"byteOffset":208080,
			"target":34962
		},
		{
			"buffer":0,
			"byteLength":2832,
			"byteOffset":212328,
			"target":34962
		},
		{
			"buffer":0,
			"byteLength":1608,
			"byteOffset":215160,
			"target":34963
		},
		{
			"buffer":0,
			"byteLength":624,
			"byteOffset":216768,
			"target":34962
		},
		{
			"buffer":0,
			"byteLength":624,
			"byteOffset":217392,
			"target":34962
		},
		{
			"buffer":0,
			"byteLength":416,
			"byteOffset":218016,
			"target":34962
		},
		{
			"buffer":0,
			"byteLength":156,
			"byteOffset":218432,
			"target":34963
		},
		{
			"buffer":0,
			"byteLength":4200,
			"byteOffset":218588,
			"target":34962
		},
		{
			"buffer":0,
			"byteLength":4200,
			"byteOffset":222788,
			"target":34962
		},
		{
			"buffer":0,
			"byteLength":2800,
			"byteOffset":226988,
			"target":34962
		},
		{
			"buffer":0,
			"byteLength":1584,
			"byteOffset":229788,
			"target":34963
		},
		{
			"buffer":0,
			"byteLength":144,
			"byteOffset":231372,
			"target":34962
		},
		{
			"buffer":0,
			"byteLength":144,
			"byteOffset":231516,
			"target":34962
		},
		{
			"buffer":0,
			"byteLength":96,
			"byteOffset":231660,
			"target":34962
		},
		{
			"buffer":0,
			"byteLength":36,
			"byteOffset":231756,
			"target":34963
		},
		{
			"buffer":0,
			"byteLength":924,
			"byteOffset":231792,
			"target":34962
		},
		{
			"buffer":0,
			"byteLength":924,
			"byteOffset":232716,
			"target":34962
		},
		{
			"buffer":0,
			"byteLength":616,
			"byteOffset":233640,
			"target":34962
		},
		{
			"buffer":0,
			"byteLength":288,
			"byteOffset":234256,
			"target":34963
		},
		{
			"buffer":0,
			"byteLength":312,
			"byteOffset":234544,
			"target":34962
		},
		{
			"buffer":0,
			"byteLength":312,
			"byteOffset":234856,
			"target":34962
		},
		{
			"buffer":0,
			"byteLength":208,
			"byteOffset":235168,
			"target":34962
		},
		{
			"buffer":0,
			"byteLength":84,
			"byteOffset":235376,
			"target":34963
		},
		{
			"buffer":0,
			"byteLength":240,
			"byteOffset":235460,
			"target":34962
		},
		{
			"buffer":0,
			"byteLength":240,
			"byteOffset":235700,
			"target":34962
		},
		{
			"buffer":0,
			"byteLength":160,
			"byteOffset":235940,
			"target":34962
		},
		{
			"buffer":0,
			"byteLength":72,
			"byteOffset":236100,
			"target":34963
		},
		{
			"buffer":0,
			"byteLength":144,
			"byteOffset":236172,
			"target":34962
		},
		{
			"buffer":0,
			"byteLength":144,
			"byteOffset":236316,
			"target":34962
		},
		{
			"buffer":0,
			"byteLength":96,
			"byteOffset":236460,
			"target":34962
		},
		{
			"buffer":0,
			"byteLength":36,
			"byteOffset":236556,
			"target":34963
		},
		{
			"buffer":0,
			"byteLength":144,
			"byteOffset":236592,
			"target":34962
		},
		{
			"buffer":0,
			"byteLength":144,
			"byteOffset":236736,
			"target":34962
		},
		{
			"buffer":0,
			"byteLength":96,
			"byteOffset":236880,
			"target":34962
		},
		{
			"buffer":0,
			"byteLength":960,
			"byteOffset":236976
		}
	],
	"samplers":[
		{
			"magFilter":9729,
			"minFilter":9987
		}
	],
	"buffers":[
		{
			"byteLength":237936,
			"uri":"mech_model_only.bin"
		}
	]
}
